<svg xmlns="http://www.w3.org/2000/svg" viewBox="0 0 160 96" color="currentColor" fill="none">
  <title>Cloud outline 03</title>
  <path d="M16 72c0-11 9-21 22-19 2-15 16-26 31-23 8-15 28-24 47-14 13 7 20 19 18 33 12-3 24 4 24 17 0 12-10 20-26 20H31c-9 0-15-5-15-14Z" stroke="currentColor" stroke-width="6" stroke-linejoin="round" stroke-linecap="round"/>
  <path d="M44 55c8-5 18-5 25 1M89 25c13-5 28 1 34 13M31 78c28 5 58 5 87 0" stroke="currentColor" stroke-width="2.5" stroke-linecap="round" opacity=".45"/>
</svg>
