<svg xmlns="http://www.w3.org/2000/svg" viewBox="0 0 160 96" color="currentColor">
  <title>Cloud fill 04</title>
  <path d="M20 71c4-14 19-22 35-18 4-17 19-30 37-30 20 0 35 14 37 33 11-1 20 5 20 15 0 12-12 17-29 17H31c-12 0-16-7-11-17Z" fill="currentColor" fill-opacity=".9" stroke="currentColor" stroke-width="5" stroke-linejoin="round" stroke-linecap="round"/>
  <path d="M47 62c5-6 13-8 23-6M82 37c8-7 20-8 30-2M103 78c8-1 16 0 24 3M35 78c6 1 13 1 19 0" fill="none" stroke="currentColor" stroke-width="2" stroke-linecap="round" opacity=".38"/>
</svg>
