<svg xmlns="http://www.w3.org/2000/svg" viewBox="0 0 160 96" color="currentColor" fill="none">
  <title>Cloud outline swirl</title>
  <path d="M14 68c0-12 11-22 25-20 4-17 21-31 42-31 19 0 35 10 43 26 17-6 34 3 34 19 0 15-13 25-31 25H31c-12 0-17-8-17-19Z" stroke="currentColor" stroke-width="6" stroke-linejoin="round" stroke-linecap="round"/>
  <path d="M44 68c-12 4-23-2-23-11 0-8 8-13 16-10 8 3 9 14 2 21M123 41c14-9 28 2 21 13-5 8-18 6-17-4" stroke="currentColor" stroke-width="5" stroke-linecap="round" stroke-linejoin="round"/>
  <path d="M57 78c23 3 43 3 66 0" stroke="currentColor" stroke-width="2.3" stroke-linecap="round" opacity=".45"/>
</svg>
